<svg width="13" height="12" viewBox="0 0 13 12" fill="none" xmlns="http://www.w3.org/2000/svg">
<g clip-path="url(#clip0_1158_360)">
<mask id="mask0_1158_360" style="mask-type:alpha" maskUnits="userSpaceOnUse" x="0" y="0" width="13" height="12">
<path d="M5.12494 9.18744C5.05105 9.18754 4.97787 9.17304 4.90961 9.14476C4.84134 9.11648 4.77934 9.075 4.72716 9.02268L2.10216 6.39791C1.99714 6.29233 1.93828 6.14941 1.93848 6.00049C1.93868 5.85157 1.99792 5.70881 2.10322 5.6035C2.20852 5.4982 2.35128 5.43894 2.5002 5.43874C2.64911 5.43853 2.79204 5.49739 2.89763 5.6024L5.12494 7.82943L9.97716 2.97744C10.0829 2.87337 10.2256 2.81532 10.3739 2.81592C10.5223 2.81653 10.6645 2.87574 10.7694 2.98067C10.8743 3.0856 10.9335 3.22774 10.9342 3.37613C10.9348 3.52452 10.8767 3.66713 10.7726 3.77291L5.52263 9.02273C5.47046 9.07502 5.40847 9.1165 5.34022 9.14476C5.27197 9.17303 5.19881 9.18754 5.12494 9.18744Z" fill="black"/>
</mask>
<g mask="url(#mask0_1158_360)">
<rect x="0.25" width="12" height="12" fill="white"/>
</g>
</g>
<defs>
<clipPath id="clip0_1158_360">
<rect width="12" height="12" fill="white" transform="translate(0.25)"/>
</clipPath>
</defs>
</svg>
