<svg width="13" height="12" viewBox="0 0 13 12" fill="none" xmlns="http://www.w3.org/2000/svg">
<g clip-path="url(#clip0_1158_277)">
<mask id="mask0_1158_277" style="mask-type:alpha" maskUnits="userSpaceOnUse" x="0" y="0" width="13" height="12">
<path d="M5.62494 9.18744C5.55105 9.18754 5.47787 9.17304 5.40961 9.14476C5.34134 9.11648 5.27934 9.075 5.22716 9.02268L2.60216 6.39791C2.49714 6.29233 2.43828 6.14941 2.43848 6.00049C2.43868 5.85157 2.49792 5.70881 2.60322 5.6035C2.70852 5.4982 2.85128 5.43894 3.0002 5.43874C3.14911 5.43853 3.29204 5.49739 3.39763 5.6024L5.62494 7.82943L10.4772 2.97744C10.5829 2.87337 10.7256 2.81532 10.8739 2.81592C11.0223 2.81653 11.1645 2.87574 11.2694 2.98067C11.3743 3.0856 11.4335 3.22774 11.4342 3.37613C11.4348 3.52452 11.3767 3.66713 11.2726 3.77291L6.02263 9.02273C5.97046 9.07502 5.90847 9.1165 5.84022 9.14476C5.77197 9.17303 5.69881 9.18754 5.62494 9.18744Z" fill="black"/>
</mask>
<g mask="url(#mask0_1158_277)">
<rect x="0.75" width="12" height="12" fill="#CED4DA"/>
</g>
</g>
<defs>
<clipPath id="clip0_1158_277">
<rect width="12" height="12" fill="white" transform="translate(0.75)"/>
</clipPath>
</defs>
</svg>
